# xmcd CD database file
#
# Track frame offsets:
#	150
#	19620
#	36202
#	54423
#	72972
#	92799
#	112007
#	148574
#	165029
#	187659
#	210268
#	236067
#	258585
#
# Disc length: 3676 seconds
#
# Revision: 0
# Processed by: cddbd v1.4PL0 Copyright (c) Steve Scherf et al.
# Submitted via: CDex 1.50beta10
#
DISCID=a40e5a0d
DTITLE=Various Artist - 2003 Jazz Sampler
DYEAR=2003
DGENRE=Jazz
TTITLE0=Get into my life-chie ayado
TTITLE1=I could have danced all night-chie ayado
TTITLE2=Tennessee Waltz-chie ayado
TTITLE3=Papa loves mambo-kaoru nakasone
TTITLE4=Carmen-Habanera-European Jazz Trio
TTITLE5=Endless love - European Jazz Trio
TTITLE6=Europa-European Jazz Trio
TTITLE7=Hungarian Dance No.5 - European Jazz Trio
TTITLE8=Summertime - toshiko akiyoshi
TTITLE9=Blue Bossa - toshiko akiyoshi
TTITLE10=So Nice-tokyo Y's club
TTITLE11=Anglic Breeze- masaaki mori
TTITLE12=Solitude-takeshi shibuya
EXTD=YEAR: 2003
EXTT0=
EXTT1=
EXTT2=
EXTT3=
EXTT4=
EXTT5=
EXTT6=
EXTT7=
EXTT8=
EXTT9=
EXTT10=
EXTT11=
EXTT12=
PLAYORDER=
